<?xml version="1.0" encoding="UTF-8"?>
<svg version="1.1" xmlns="http://www.w3.org/2000/svg" width="266" height="348">
<path d="M0 0 C1.42498679 -0.00407091 2.84997041 -0.00941569 4.27494812 -0.01593018 C8.126275 -0.02954922 11.97735944 -0.02432735 15.82869029 -0.01479292 C19.87103447 -0.00716665 23.91335869 -0.01425028 27.95570374 -0.01895142 C34.7436188 -0.02440098 41.53143578 -0.01723904 48.31933594 -0.00292969 C56.15036511 0.01338874 63.98115984 0.00811103 71.81218332 -0.0084089 C78.55215258 -0.02205447 85.29205155 -0.02392827 92.03203017 -0.0160929 C96.05026657 -0.01143236 100.06839304 -0.01074654 104.08662224 -0.02070236 C107.86653975 -0.02941437 111.64615721 -0.02327357 115.42604256 -0.00601959 C116.80745065 -0.00207693 118.1888843 -0.00315042 119.57028198 -0.00980759 C135.03961109 -0.07744222 135.03961109 -0.07744222 140.83227539 3.38818359 C141.16227539 4.37818359 141.49227539 5.36818359 141.83227539 6.38818359 C142.45618164 6.69755859 143.08008789 7.00693359 143.72290039 7.32568359 C146.30458242 8.6260864 147.11562655 9.92566208 148.58227539 12.38818359 C149.01024414 13.08943359 149.43821289 13.79068359 149.87915039 14.51318359 C150.83227539 16.38818359 150.83227539 16.38818359 150.83227539 18.38818359 C151.49227539 18.38818359 152.15227539 18.38818359 152.83227539 18.38818359 C157.55292684 28.98792081 157.42067583 39.04216181 157.39746094 50.43847656 C157.40780889 52.44707105 157.41980186 54.45565763 157.43330383 56.4642334 C157.46420708 61.88997253 157.46963153 67.31544537 157.46837211 72.74126196 C157.46920583 77.28374931 157.48147168 81.82617984 157.49332172 86.3686496 C157.52064362 97.09150618 157.52603882 107.81422535 157.51855469 118.53710938 C157.51131372 129.57089555 157.54474128 140.60404281 157.59761208 151.63769042 C157.64147917 161.13789564 157.6581012 170.63789504 157.6535762 180.13819993 C157.65126153 185.8004669 157.65942599 191.46221706 157.69464684 197.12438583 C157.72675197 202.45176999 157.72467613 207.77809976 157.69720268 213.10549927 C157.69277178 215.05083373 157.70007955 216.99623926 157.72054672 218.9414711 C157.84166523 231.29803075 156.5141795 239.82261011 149.83227539 250.38818359 C149.02955971 251.7333672 149.02955971 251.7333672 148.21062756 253.10572624 C144.02633114 260.03463625 139.3691744 262.87588392 131.83227539 265.38818359 C117.24292433 267.06037602 102.41557459 266.51952108 87.75726128 266.48957753 C84.12850002 266.48325064 80.4997376 266.48273291 76.87097168 266.48155212 C70.02559024 266.47846596 63.18022511 266.47028986 56.33485079 266.46020263 C48.53051926 266.44895631 40.72618689 266.44350975 32.92184925 266.4385072 C16.89198191 266.42810442 0.86213077 266.41055856 -15.16772461 266.38818359 C-15.16772461 265.72818359 -15.16772461 265.06818359 -15.16772461 264.38818359 C-16.28147461 264.45005859 -16.28147461 264.45005859 -17.41772461 264.51318359 C-20.25531413 264.38420225 -21.75546398 263.81767137 -24.16772461 262.38818359 C-24.16772461 261.72818359 -24.16772461 261.06818359 -24.16772461 260.38818359 C-24.82772461 260.38818359 -25.48772461 260.38818359 -26.16772461 260.38818359 C-29.9675259 257.07553631 -32.0141122 253.90051435 -34.16772461 249.38818359 C-34.82772461 249.05818359 -35.48772461 248.72818359 -36.16772461 248.38818359 C-39.38291623 241.95780035 -39.31913546 234.83930214 -39.3528595 227.80659485 C-39.36061974 226.96786888 -39.36837998 226.12914291 -39.37637538 225.265001 C-39.40100448 222.46794416 -39.41880381 219.67088781 -39.43652344 216.8737793 C-39.45266059 214.8626833 -39.46915951 212.85159017 -39.48599243 210.84049988 C-39.53926346 204.24836417 -39.58228832 197.65617752 -39.62475586 191.06396484 C-39.63996183 188.78991345 -39.65522276 186.51586242 -39.67053795 184.24181175 C-39.74183565 173.55777941 -39.80833743 162.87372997 -39.86912709 152.18963271 C-39.9393721 139.875503 -40.02628324 127.56163667 -40.12730962 115.24772197 C-40.20440895 105.71633018 -40.26586656 96.18491482 -40.31571597 86.65334195 C-40.34584063 80.96654446 -40.38263719 75.27997835 -40.43601418 69.59334755 C-40.48587465 64.24092937 -40.51625462 58.88874317 -40.53204727 53.53611946 C-40.5411258 51.57862584 -40.55707203 49.62114932 -40.58062935 47.6637764 C-40.86394726 23.3080359 -40.86394726 23.3080359 -33.54272461 15.63818359 C-31.16772461 14.38818359 -31.16772461 14.38818359 -29.16772461 14.38818359 C-29.16772461 12.73818359 -29.16772461 11.08818359 -29.16772461 9.38818359 C-28.19834961 8.95505859 -27.22897461 8.52193359 -26.23022461 8.07568359 C-22.89040696 6.68669749 -22.89040696 6.68669749 -22.16772461 3.38818359 C-15.03713232 -0.34483861 -7.88604837 -0.03794314 0 0 Z " fill="#FDF101" transform="translate(80.167724609375,44.61181640625)"/>
<path d="M0 0 C46.86 0 93.72 0 142 0 C142 3.96 142 7.92 142 12 C95.14 12 48.28 12 0 12 C0 8.04 0 4.08 0 0 Z " fill="#E61F1D" transform="translate(65,86)"/>
<path d="M0 0 C46.2 0 92.4 0 140 0 C140 3.96 140 7.92 140 12 C93.8 12 47.6 12 0 12 C0 11.34 0 10.68 0 10 C-0.66 10 -1.32 10 -2 10 C-2 7.69 -2 5.38 -2 3 C-1.34 3 -0.68 3 0 3 C0 2.01 0 1.02 0 0 Z " fill="#E32319" transform="translate(67,141)"/>
<path d="M0 0 C46.86 0 93.72 0 142 0 C142 3.63 142 7.26 142 11 C95.14 11 48.28 11 0 11 C0 7.37 0 3.74 0 0 Z " fill="#E4211B" transform="translate(65,261)"/>
<path d="M0 0 C46.86 0 93.72 0 142 0 C142 3.63 142 7.26 142 11 C95.14 11 48.28 11 0 11 C0 7.37 0 3.74 0 0 Z " fill="#ED1B24" transform="translate(65,199)"/>
<path d="M0 0 C0.99 0 1.98 0 3 0 C7.72065145 10.59973722 7.58840044 20.65397822 7.56518555 32.05029297 C7.5755335 34.05888746 7.58752647 36.06747404 7.60102844 38.0760498 C7.63193169 43.50178894 7.63735613 48.92726178 7.63609672 54.35307837 C7.63693044 58.89556571 7.64919629 63.43799625 7.66104633 67.98046601 C7.68836823 78.70332259 7.69376343 89.42604175 7.6862793 100.14892578 C7.67903833 111.18271196 7.71246589 122.21585921 7.76533669 133.24950683 C7.80920378 142.74971205 7.82582581 152.24971145 7.8213008 161.75001633 C7.81898614 167.41228331 7.8271506 173.07403347 7.86237144 178.73620224 C7.89447657 184.0635864 7.89240073 189.38991617 7.86492729 194.71731567 C7.86049639 196.66265013 7.86780416 198.60805567 7.88827133 200.55328751 C8.02504205 214.50669219 5.81066163 223.28400755 -2 235 C-1.67 231.7 -1.34 228.4 -1 225 C-0.01 224.67 0.98 224.34 2 224 C2 151.4 2 78.8 2 4 C1.34 4 0.68 4 0 4 C0 2.68 0 1.36 0 0 Z " fill="#C9C24B" transform="translate(230,63)"/>
<path d="M0 0 C2.31 0.66 4.62 1.32 7 2 C6.7421875 3.86328125 6.7421875 3.86328125 6 6 C4.2578125 7.23046875 4.2578125 7.23046875 2.125 8.1875 C1.07699219 8.67283203 1.07699219 8.67283203 0.0078125 9.16796875 C-14.32277863 15.1065211 -33.82212343 12.13255207 -49.07501411 12.10139394 C-52.70377537 12.09506705 -56.33253779 12.09454932 -59.96130371 12.09336853 C-66.80668515 12.09028237 -73.65205029 12.08210626 -80.4974246 12.07201904 C-88.30175613 12.06077272 -96.10608851 12.05532616 -103.91042614 12.05032361 C-119.94029348 12.03992082 -135.97014462 12.02237496 -152 12 C-152 11.34 -152 10.68 -152 10 C-152.7425 10.04125 -153.485 10.0825 -154.25 10.125 C-157.08758952 9.99601866 -158.58773938 9.42948778 -161 8 C-161 7.34 -161 6.68 -161 6 C-158.36 6 -155.72 6 -153 6 C-153 6.66 -153 7.32 -153 8 C-133.82402145 7.91607126 -114.64812973 7.82092721 -95.47227383 7.71247292 C-86.568366 7.66237522 -77.66446725 7.61593197 -68.76049805 7.578125 C-60.99878115 7.54515881 -53.23713528 7.50530204 -45.47549683 7.45720994 C-41.36670342 7.43199094 -37.25795685 7.41019612 -33.14910698 7.39665604 C-29.27904382 7.38379388 -25.40914164 7.36169495 -21.5391674 7.33261681 C-20.12146245 7.32357343 -18.70373159 7.31785839 -17.2859993 7.31578636 C-7.45245391 7.3491055 -7.45245391 7.3491055 2 5 C1.01 2.525 1.01 2.525 0 0 Z " fill="#A9A332" transform="translate(217,299)"/>
<path d="M0 0 C0.6875 1.8125 0.6875 1.8125 1 4 C-0.3125 5.75 -0.3125 5.75 -2 7 C-2.66 7 -3.32 7 -4 7 C-4 7.99 -4 8.98 -4 10 C-4.66 10 -5.32 10 -6 10 C-6 79.96 -6 149.92 -6 222 C-5.34 222 -4.68 222 -4 222 C-4 224.97 -4 227.94 -4 231 C-3.34 231 -2.68 231 -2 231 C-1.67 231.99 -1.34 232.98 -1 234 C-0.01 234 0.98 234 2 234 C2 235.98 2 237.96 2 240 C3.32 240.33 4.64 240.66 6 241 C6 242.32 6 243.64 6 245 C6.66 245.33 7.32 245.66 8 246 C5 246 5 246 2.5 243.875 C0.02955971 241.03399367 -1.38882195 238.37580162 -3 235 C-3.66 234.67 -4.32 234.34 -5 234 C-8.21519162 227.56961676 -8.15141085 220.45111854 -8.18513489 213.41841125 C-8.19289513 212.57968528 -8.20065537 211.74095931 -8.20865077 210.87681741 C-8.23327987 208.07976056 -8.2510792 205.28270422 -8.26879883 202.4855957 C-8.28493598 200.4744997 -8.3014349 198.46340658 -8.31826782 196.45231628 C-8.37153885 189.86018057 -8.41456371 183.26799393 -8.45703125 176.67578125 C-8.47223722 174.40172985 -8.48749815 172.12767882 -8.50281334 169.85362816 C-8.57411104 159.16959582 -8.64061282 148.48554638 -8.70140249 137.80144912 C-8.77164749 125.4873194 -8.85855863 113.17345308 -8.95958501 100.85953838 C-9.03668434 91.32814659 -9.09814195 81.79673123 -9.14799136 72.26515836 C-9.17811602 66.57836087 -9.21491258 60.89179476 -9.26828957 55.20516396 C-9.31815004 49.85274578 -9.34853001 44.50055958 -9.36432266 39.14793587 C-9.37340119 37.19044225 -9.38934742 35.23296572 -9.41290474 33.2755928 C-9.64892069 12.98621825 -9.64892069 12.98621825 -5 4 C-2.25 1.25 -2.25 1.25 0 0 Z " fill="#FAF659" transform="translate(49,59)"/>
<path d="M0 0 C1.79200333 -0.00422974 1.79200333 -0.00422974 3.62020874 -0.00854492 C5.59641708 -0.00550858 5.59641708 -0.00550858 7.61254883 -0.00241089 C9.00859625 -0.00376533 10.40464331 -0.00554551 11.8006897 -0.00772095 C15.59811398 -0.01229015 19.39551117 -0.01050782 23.19293594 -0.00734186 C27.16117681 -0.00481563 31.1294153 -0.00715654 35.09765625 -0.00872803 C41.76245542 -0.01054895 48.42724352 -0.00814544 55.09204102 -0.00338745 C62.80486151 0.00205502 70.51765557 0.00029231 78.23047543 -0.00521386 C84.8445073 -0.00974718 91.4585312 -0.01039445 98.07256413 -0.00777519 C102.02635697 -0.00621363 105.98013739 -0.00601535 109.93392944 -0.00931168 C113.65044776 -0.01219357 117.36693189 -0.01020881 121.0834465 -0.00441742 C123.10361432 -0.00245746 125.12378503 -0.00544104 127.14395142 -0.00854492 C128.3386203 -0.0057251 129.53328918 -0.00290527 130.76416016 0 C132.32823357 0.00056554 132.32823357 0.00056554 133.92390442 0.0011425 C136.38208008 0.12698364 136.38208008 0.12698364 138.38208008 1.12698364 C138.38208008 5.08698364 138.38208008 9.04698364 138.38208008 13.12698364 C137.06208008 13.45698364 135.74208008 13.78698364 134.38208008 14.12698364 C134.38208008 14.78698364 134.38208008 15.44698364 134.38208008 16.12698364 C133.67583118 15.96510811 132.96958229 15.80323257 132.24193192 15.63645172 C129.30665924 15.1135478 126.60438579 14.99089834 123.62445068 14.97549438 C122.47469757 14.96715073 121.32494446 14.95880707 120.14035034 14.95021057 C118.88819733 14.94602615 117.63604431 14.94184174 116.34594727 14.93753052 C115.00694522 14.92958274 113.66794572 14.92119436 112.32894897 14.91239929 C109.45175674 14.89438229 106.57456998 14.87935294 103.69734955 14.86662292 C99.15156941 14.84637232 94.60585267 14.81872704 90.06011963 14.78994751 C79.59597632 14.72482009 69.13178637 14.66925733 58.66758728 14.61396027 C49.06546407 14.5631461 39.46336409 14.51032723 29.8612988 14.44943476 C25.33809943 14.4210337 20.81490784 14.39745786 16.29166365 14.37751007 C14.15989143 14.36736907 12.02814675 14.35498438 9.89639282 14.34156799 C7.29151476 14.32518467 4.68661078 14.31240583 2.08169556 14.30375671 C0.94322174 14.29541306 -0.19525208 14.2870694 -1.3682251 14.2784729 C-2.36371998 14.27331917 -3.35921486 14.26816544 -4.38487625 14.26285553 C-6.61791992 14.12698364 -6.61791992 14.12698364 -7.61791992 13.12698364 C-7.69036045 11.10734165 -7.7016918 9.08531241 -7.68041992 7.06448364 C-7.67139648 5.95975708 -7.66237305 4.85503052 -7.65307617 3.71682739 C-7.64147461 2.86217896 -7.62987305 2.00753052 -7.61791992 1.12698364 C-4.96524147 -0.19935559 -2.97170871 0.00107451 0 0 Z M-5.61791992 2.12698364 C-5.61791992 5.75698364 -5.61791992 9.38698364 -5.61791992 13.12698364 C41.24208008 13.12698364 88.10208008 13.12698364 136.38208008 13.12698364 C136.38208008 9.49698364 136.38208008 5.86698364 136.38208008 2.12698364 C89.52208008 2.12698364 42.66208008 2.12698364 -5.61791992 2.12698364 Z " fill="#FEDC28" transform="translate(70.617919921875,196.87301635742188)"/>
<path d="M0 0 C46.86 0 93.72 0 142 0 C142 3.63 142 7.26 142 11 C95.14 11 48.28 11 0 11 C0 7.37 0 3.74 0 0 Z M2 2 C2 4.31 2 6.62 2 9 C3.70505508 10.70505508 5.90056419 10.12609759 8.23191833 10.12698364 C9.36631348 10.12980347 10.50070862 10.13262329 11.66947937 10.13552856 C12.92509171 10.13350433 14.18070404 10.1314801 15.47436523 10.12939453 C16.7880307 10.13114685 18.10169617 10.13289917 19.45516968 10.13470459 C23.06877518 10.13927893 26.68235226 10.13748925 30.29595828 10.1343255 C34.07068381 10.13180138 37.84540683 10.13413964 41.62013245 10.13571167 C47.96135904 10.13753344 54.302574 10.13512711 60.64379883 10.13037109 C67.98226238 10.1249308 75.32069815 10.12668941 82.65916103 10.1321975 C88.95045791 10.13673123 95.24174641 10.13737783 101.5330444 10.13475883 C105.29458609 10.13319719 109.05611471 10.13299917 112.81765556 10.13629532 C117.01053394 10.13971244 121.2033642 10.13498002 125.39624023 10.12939453 C127.27662239 10.13243088 127.27662239 10.13243088 129.19499207 10.13552856 C130.90081451 10.13129883 130.90081451 10.13129883 132.64109802 10.12698364 C133.63349204 10.12660662 134.62588606 10.12622959 135.64835262 10.12584114 C138.0210811 10.15561801 138.0210811 10.15561801 140 9 C140 6.69 140 4.38 140 2 C94.46 2 48.92 2 2 2 Z " fill="#D03104" transform="translate(65,199)"/>
<path d="M0 0 C1.42498679 -0.00407091 2.84997041 -0.00941569 4.27494812 -0.01593018 C8.126275 -0.02954922 11.97735944 -0.02432735 15.82869029 -0.01479292 C19.87103447 -0.00716665 23.91335869 -0.01425028 27.95570374 -0.01895142 C34.7436188 -0.02440098 41.53143578 -0.01723904 48.31933594 -0.00292969 C56.15036511 0.01338874 63.98115984 0.00811103 71.81218332 -0.0084089 C78.55215258 -0.02205447 85.29205155 -0.02392827 92.03203017 -0.0160929 C96.05026657 -0.01143236 100.06839304 -0.01074654 104.08662224 -0.02070236 C107.86653975 -0.02941437 111.64615721 -0.02327357 115.42604256 -0.00601959 C116.80745065 -0.00207693 118.1888843 -0.00315042 119.57028198 -0.00980759 C135.03961109 -0.07744222 135.03961109 -0.07744222 140.83227539 3.38818359 C141.16227539 4.37818359 141.49227539 5.36818359 141.83227539 6.38818359 C142.76040039 6.79037109 142.76040039 6.79037109 143.70727539 7.20068359 C146.75523088 8.90395284 147.47304387 11.2619511 148.83227539 14.38818359 C147.84227539 15.04818359 146.85227539 15.70818359 145.83227539 16.38818359 C145.50227539 14.07818359 145.17227539 11.76818359 144.83227539 9.38818359 C142.85227539 8.72818359 140.87227539 8.06818359 138.83227539 7.38818359 C138.83227539 6.72818359 138.83227539 6.06818359 138.83227539 5.38818359 C137.18227539 5.38818359 135.53227539 5.38818359 133.83227539 5.38818359 C133.83227539 4.72818359 133.83227539 4.06818359 133.83227539 3.38818359 C114.2306051 3.47205641 94.62902024 3.56717977 75.02747059 3.67571068 C65.92620844 3.72584049 56.82495532 3.77228339 47.72363281 3.81005859 C39.79127086 3.84299135 31.85897885 3.8828297 23.9266941 3.93097365 C19.72630247 3.95622586 15.52595717 3.97801093 11.32551003 3.99152756 C7.37173508 4.0043595 3.41811911 4.02642614 -0.53556824 4.05556679 C-1.98636468 4.0646337 -3.43718672 4.07033074 -4.88801003 4.07239723 C-6.87001227 4.07572585 -8.85197872 4.09239032 -10.83390808 4.10971069 C-11.94282504 4.11524145 -13.051742 4.12077221 -14.1942625 4.12647057 C-17.2209218 4.39286581 -19.42820975 5.1088774 -22.16772461 6.38818359 C-22.16772461 5.39818359 -22.16772461 4.40818359 -22.16772461 3.38818359 C-14.83542932 -0.08604689 -7.99805402 -0.03848205 0 0 Z " fill="#FAF663" transform="translate(80.167724609375,44.61181640625)"/>
<path d="M0 0 C1.48943513 0.00169656 2.97887526 0.00073443 4.4683075 -0.00265503 C8.47411815 -0.00436226 12.47883001 0.03067756 16.4843874 0.07278872 C20.68433736 0.11053808 24.88431818 0.11384 29.08441162 0.12094116 C37.02097072 0.13951946 44.95702832 0.18866023 52.89336753 0.2490381 C61.93572428 0.31632308 70.97810618 0.34914726 80.02065134 0.37921071 C98.60617327 0.44176649 117.19122977 0.5471634 135.77636719 0.68115234 C135.77636719 1.01115234 135.77636719 1.34115234 135.77636719 1.68115234 C85.61636719 2.01115234 35.45636719 2.34115234 -16.22363281 2.68115234 C-16.55363281 3.67115234 -16.88363281 4.66115234 -17.22363281 5.68115234 C-18.87363281 5.68115234 -20.52363281 5.68115234 -22.22363281 5.68115234 C-22.22363281 6.34115234 -22.22363281 7.00115234 -22.22363281 7.68115234 C-22.86300781 7.80490234 -23.50238281 7.92865234 -24.16113281 8.05615234 C-25.18207031 8.36552734 -25.18207031 8.36552734 -26.22363281 8.68115234 C-26.55363281 9.34115234 -26.88363281 10.00115234 -27.22363281 10.68115234 C-27.22363281 9.36115234 -27.22363281 8.04115234 -27.22363281 6.68115234 C-18.09080841 1.0499133 -10.5804031 -0.17093573 0 0 Z " fill="#FBF012" transform="translate(78.2236328125,47.31884765625)"/>
<path d="M0 0 C2.64 0 5.28 0 8 0 C8 0.66 8 1.32 8 2 C26.48 2 44.96 2 64 2 C64 2.33 64 2.66 64 3 C56.24628318 3.1771335 48.49241457 3.34307692 40.73816299 3.49477577 C37.13747173 3.56556812 33.53694572 3.64019893 29.93652344 3.72363281 C26.46129993 3.80402365 22.98600507 3.87429121 19.51042938 3.93757248 C17.54051507 3.976076 15.57081413 4.02503494 13.60113525 4.0741272 C12.40019226 4.09429901 11.19924927 4.11447083 9.96191406 4.13525391 C8.90490295 4.15746002 7.84789185 4.17966614 6.7588501 4.20254517 C3.97208041 3.99795024 2.36420185 3.44048461 0 2 C0 1.34 0 0.68 0 0 Z " fill="#FBED18" transform="translate(56,305)"/>
<path d="M0 0 C0.66 0 1.32 0 2 0 C2 2.97 2 5.94 2 9 C2.66 9 3.32 9 4 9 C4.33 9.99 4.66 10.98 5 12 C5.99 12 6.98 12 8 12 C8 13.98 8 15.96 8 18 C9.32 18.33 10.64 18.66 12 19 C12 20.32 12 21.64 12 23 C12.66 23.33 13.32 23.66 14 24 C11 24 11 24 8.5 21.875 C6.02955971 19.03399367 4.61117805 16.37580162 3 13 C2.34 12.67 1.68 12.34 1 12 C-0.92626762 8.25447963 -1.28521175 5.18310562 -1 1 C-0.67 0.67 -0.34 0.34 0 0 Z " fill="#F9F45B" transform="translate(43,281)"/>
<path d="M0 0 C2.31 0.66 4.62 1.32 7 2 C6.7421875 3.859375 6.7421875 3.859375 6 6 C4.2578125 7.265625 4.2578125 7.265625 2.125 8.25 C1.42632812 8.58515625 0.72765625 8.9203125 0.0078125 9.265625 C-2 10 -2 10 -5 10 C-4.67 8.68 -4.34 7.36 -4 6 C-2.02 5.67 -0.04 5.34 2 5 C1.34 3.35 0.68 1.7 0 0 Z " fill="#AFA91E" transform="translate(217,299)"/>
<path d="M0 0 C2.31 0.33 4.62 0.66 7 1 C7.33 1.99 7.66 2.98 8 4 C8.61875 4.268125 9.2375 4.53625 9.875 4.8125 C12.92295549 6.51576924 13.64076848 8.8737675 15 12 C14.01 12.66 13.02 13.32 12 14 C11.67 11.69 11.34 9.38 11 7 C9.02 6.34 7.04 5.68 5 5 C5 4.34 5 3.68 5 3 C3.35 3 1.7 3 0 3 C0 2.01 0 1.02 0 0 Z " fill="#F5F249" transform="translate(214,47)"/>
<path d="M0 0 C2.64 0 5.28 0 8 0 C8 0.66 8 1.32 8 2 C10.64 2 13.28 2 16 2 C16 2.33 16 2.66 16 3 C14.08496326 3.22281874 12.16783494 3.42771076 10.25 3.625 C9.18265625 3.74101562 8.1153125 3.85703125 7.015625 3.9765625 C3.96207601 4.00029475 2.53837579 3.61420985 0 2 C0 1.34 0 0.68 0 0 Z " fill="#CBC12D" transform="translate(56,305)"/>
<path d="M0 0 C0 1.98 0 3.96 0 6 C1.32 6.33 2.64 6.66 4 7 C4 8.32 4 9.64 4 11 C4.66 11.33 5.32 11.66 6 12 C3 12 3 12 0.375 9.875 C-2.20726652 6.74909842 -2.72217314 4.98218499 -3 1 C-1 0 -1 0 0 0 Z " fill="#F6EF31" transform="translate(51,293)"/>
<path d="M0 0 C0.6875 1.8125 0.6875 1.8125 1 4 C-0.3125 5.75 -0.3125 5.75 -2 7 C-2.66 7 -3.32 7 -4 7 C-4 7.99 -4 8.98 -4 10 C-4.66 10 -5.32 10 -6 10 C-6.33 10.99 -6.66 11.98 -7 13 C-6.67558396 11.33157466 -6.34060811 9.66519519 -6 8 C-5.9175 7.319375 -5.835 6.63875 -5.75 5.9375 C-4.62426761 3.02935798 -2.47902338 1.77981166 0 0 Z " fill="#F6F049" transform="translate(49,59)"/>
<path d="M0 0 C2.31 0.33 4.62 0.66 7 1 C7.33 1.99 7.66 2.98 8 4 C8.66 4.33 9.32 4.66 10 5 C6.7 4.34 3.4 3.68 0 3 C0 2.01 0 1.02 0 0 Z " fill="#FAF580" transform="translate(214,47)"/>
<path d="M0 0 C2.64 0 5.28 0 8 0 C7 2 7 2 4.625 3.125 C2 4 2 4 -1 4 C-0.67 2.68 -0.34 1.36 0 0 Z " fill="#837C2C" transform="translate(213,305)"/>
<path d="M0 0 C1.32 0 2.64 0 4 0 C2.66666667 3.33333333 1.33333333 6.66666667 0 10 C-0.33 10 -0.66 10 -1 10 C-0.67 6.7 -0.34 3.4 0 0 Z " fill="#5C5624" transform="translate(229,288)"/>
<path d="M0 0 C0.99 0 1.98 0 3 0 C3.66 2.31 4.32 4.62 5 7 C4.34 7 3.68 7 3 7 C2.67 7.66 2.34 8.32 2 9 C2 7.35 2 5.7 2 4 C1.34 4 0.68 4 0 4 C0 2.68 0 1.36 0 0 Z " fill="#A19949" transform="translate(230,63)"/>
<path d="M0 0 C0.33 0.66 0.66 1.32 1 2 C0.34 2 -0.32 2 -1 2 C-1 2.66 -1 3.32 -1 4 C-1.639375 4.12375 -2.27875 4.2475 -2.9375 4.375 C-3.9584375 4.684375 -3.9584375 4.684375 -5 5 C-5.33 5.66 -5.66 6.32 -6 7 C-6 5.68 -6 4.36 -6 3 C-4.02 2.01 -2.04 1.02 0 0 Z " fill="#F6F253" transform="translate(57,51)"/>
</svg>
